# xmcd
#
# Track frame offsets: 
#        150
#        24130
#        43598
#        68118
#        87600
#        114083
#        134250
#        163283
#        187575
#        209175
#
# Disc length: 3036 seconds
#
# Revision: 2
# Processed by: cddbd v1.5.2PL0 Copyright (c) Steve Scherf et al.
# Submitted via: ExactAudioCopy v1.0b3
#
DISCID=840bda0a
DTITLE=Various Artist - Nhat Truong, Thanh Lan va Ban Huu
DYEAR=1990
DGENRE=
TTITLE0=Nhat Truong - Anh ve voi em
TTITLE1=Thai Chau - Vet thuong soi da
TTITLE2=Nhat Truong, Thanh Lan - Khong bao gio ngan cach
TTITLE3=Trang My Dung - Mua hoa anh dao
TTITLE4=Nhat Truong - Le da
TTITLE5=Thai Chau - Chuyen tinh nguoi trinh nu ten Thi
TTITLE6=Lan Ngoc - Xom dem
TTITLE7=Nhat Truong, Thanh Lan - Tra lai em yeu
TTITLE8=Thanh Lan - Dau tinh sau
TTITLE9=Thai Chau - Bai hat cho nguoi ky nu
EXTD=
EXTT0=
EXTT1=
EXTT2=
EXTT3=
EXTT4=
EXTT5=
EXTT6=
EXTT7=
EXTT8=
EXTT9=
PLAYORDER=
